<svg width="46" height="46" viewBox="0 0 46 46" fill="none" xmlns="http://www.w3.org/2000/svg">
<path d="M39.12 0.48999H7.85999C4.06027 0.48999 0.97998 3.57027 0.97998 7.36999V38.63C0.97998 42.4297 4.06027 45.51 7.85999 45.51H39.12C42.9197 45.51 46 42.4297 46 38.63V7.36999C46 3.57027 42.9197 0.48999 39.12 0.48999Z" fill="#373A93"/>
<path d="M23.4899 23.44C16.3799 23.44 10.6199 26.31 10.6199 29.84C10.6199 33.37 16.3799 36.24 23.4899 36.24C30.5999 36.24 36.3599 33.37 36.3599 29.84C36.3599 26.31 30.5999 23.44 23.4899 23.44ZM23.4899 31.8C18.5399 31.8 14.5299 30.27 14.5299 28.38C14.5299 26.49 18.5399 24.96 23.4899 24.96C28.4399 24.96 32.4499 26.49 32.4499 28.38C32.4499 30.27 28.4399 31.8 23.4899 31.8Z" fill="#A9A9A9"/>
<path d="M23.4899 18.11C18.5399 18.11 14.5299 16.58 14.5299 14.69C14.5299 12.8 18.5399 11.27 23.4899 11.27C28.4399 11.27 32.4499 12.8 32.4499 14.69C32.4499 15.51 31.6999 16.26 30.4399 16.85C32.2499 17.4 33.7799 18.17 34.9199 19.09C35.8299 18.21 36.3499 17.21 36.3499 16.16C36.3499 12.62 30.5899 9.76001 23.4799 9.76001C16.3699 9.76001 10.6099 12.63 10.6099 16.16C10.6099 19.69 16.3699 22.56 23.4799 22.56V18.12L23.4899 18.11Z" fill="white"/>
<path d="M23.4899 16.6V18.11C28.4399 18.11 32.4499 19.64 32.4499 21.53C32.4499 23.42 28.4399 24.95 23.4899 24.95C18.5399 24.95 14.5699 23.43 14.5299 21.55C13.5799 21.12 12.7399 20.61 12.0599 20.05C11.1399 20.93 10.6199 21.93 10.6199 22.99C10.6199 26.53 16.3799 29.39 23.4899 29.39C30.5999 29.39 36.3599 26.52 36.3599 22.99C36.3599 19.46 30.5999 16.59 23.4899 16.59V16.6Z" fill="white"/>
</svg>
