<svg width="78" height="32" viewBox="0 0 78 32" fill="none" xmlns="http://www.w3.org/2000/svg">
<path d="M13.58 6.66998C8.72004 6.66998 4.79004 10.61 4.79004 15.46C4.79004 20.31 8.73004 24.25 13.58 24.25C18.43 24.25 22.37 20.31 22.37 15.46C22.37 10.61 18.43 6.66998 13.58 6.66998ZM13.58 20.17C10.98 20.17 8.88004 18.06 8.88004 15.47C8.88004 12.88 10.99 10.77 13.58 10.77C16.17 10.77 18.28 12.88 18.28 15.47C18.28 18.06 16.17 20.17 13.58 20.17Z" fill="#A9A9A9"/>
<path d="M25.6801 26.99H21.5901V31.08H25.6801V26.99Z" fill="#373A93"/>
<path d="M29.7702 26.99H25.6802V31.08H29.7702V26.99Z" fill="#373A93"/>
<path d="M38.8201 2.48998L37.2501 0.919983L33.8401 4.32998V10.75H37.9301V6.01998L38.8201 5.12998C39.5501 4.39998 39.5501 3.20998 38.8201 2.47998V2.48998Z" fill="#373A93"/>
<path d="M0.23999 24.26L0.23999 9.19001C0.23999 7.80001 1.36999 6.68001 2.74999 6.68001H4.31999L4.31999 21.74C4.31999 23.13 3.18999 24.25 1.80999 24.25H0.23999V24.26Z" fill="#373A93"/>
<path d="M73.4199 24.25V9.18C73.4199 7.79 74.5499 6.67001 75.9299 6.67001H77.4999V21.74C77.4999 23.13 76.3699 24.25 74.9899 24.25H73.4199Z" fill="#373A93"/>
<path d="M37.9401 6.66998C36.4601 6.66998 33.8501 7.67998 33.8501 7.67998V10.76H37.9401C40.5401 10.76 42.6401 12.87 42.6401 15.46C42.6401 18.05 40.5301 20.16 37.9401 20.16H33.8501V23.23C35.0701 23.88 36.4601 24.25 37.9401 24.25C42.8001 24.25 46.7301 20.31 46.7301 15.46C46.7301 10.61 42.7901 6.66998 37.9401 6.66998Z" fill="#373A93"/>
<path d="M37.9401 20.17H33.8501V24.26H37.9401V20.17Z" fill="#373A93"/>
<path d="M25.6801 20.17H21.5901V23.24C22.8101 23.89 24.2001 24.26 25.6801 24.26C30.5401 24.26 34.4701 20.32 34.4701 15.47H30.3801C30.3801 18.07 28.2701 20.17 25.6801 20.17Z" fill="#373A93"/>
<path d="M25.6801 20.17H21.5901V24.26H25.6801V20.17Z" fill="#373A93"/>
<path d="M63.86 20.17H59.77V23.24C60.99 23.89 62.38 24.26 63.86 24.26C68.72 24.26 72.65 20.32 72.65 15.47H68.56C68.56 18.07 66.45 20.17 63.86 20.17Z" fill="#373A93"/>
<path d="M63.86 20.17H46.05V24.26H63.86V20.17Z" fill="#373A93"/>
</svg>
